<?xml version="1.0" encoding="UTF-8"?>
<svg width="88px" height="60px" viewBox="0 0 88 60" version="1.1" xmlns="http://www.w3.org/2000/svg" xmlns:xlink="http://www.w3.org/1999/xlink">
    <!-- Generator: Sketch 50.2 (55047) - http://www.bohemiancoding.com/sketch -->
    <title>email 2</title>
    <desc>Created with Sketch.</desc>
    <defs></defs>
    <g id="Page-1" stroke="none" stroke-width="1" fill="none" fill-rule="evenodd">
        <g id="email" fill="#FFFFFF" fill-rule="nonzero">
            <path d="M2.9999995,-5e-05 C1.3725795,-5e-05 -4.99999999e-07,1.37255 -4.99999999e-07,2.99995 L-4.99999999e-07,57.00002 C-4.99999999e-07,58.62742 1.3725795,60.00002 2.9999995,60.00002 L85,60.00002 C86.62742,60.00002 88,58.62742 88,57.00002 L88,2.99995 C88,1.37255 86.62742,-5e-05 85,-5e-05 L2.9999995,-5e-05 Z M7.03125,3.99995 L80.96875,3.99995 L44,38.24992 L7.03125,3.99995 Z M3.9999995,6.65625 L42.625,42.46872 C43.3963006,43.1987945 44.6036994,43.1987945 45.375,42.46872 L84,6.65625 L84,56.00002 L3.9999995,56.00002 L3.9999995,6.65625 Z" id="Shape"></path>
        </g>
    </g>
</svg>