<?xml version="1.0" encoding="UTF-8"?>
<svg width="62px" height="60px" viewBox="0 0 62 60" version="1.1" xmlns="http://www.w3.org/2000/svg" xmlns:xlink="http://www.w3.org/1999/xlink">
    <!-- Generator: Sketch 50.2 (55047) - http://www.bohemiancoding.com/sketch -->
    <title>github</title>
    <desc>Created with Sketch.</desc>
    <defs></defs>
    <g id="Page-1" stroke="none" stroke-width="1" fill="none" fill-rule="evenodd">
        <g id="github" fill="#FFFFFF" fill-rule="nonzero">
            <path d="M31.0001216,0 C13.8814316,0 0,13.7712392 0,30.7594264 C0,44.3499761 8.88246297,55.8798457 21.1998478,59.947168 C22.7490638,60.2318323 23.3179849,59.2798956 23.3179849,58.4673961 C23.3179849,57.7340236 23.2890525,55.3107583 23.2759236,52.7405773 C14.6514201,54.6012687 12.831602,49.1113486 12.831602,49.1113486 C11.4214557,45.5559396 9.38962939,44.6107576 9.38962939,44.6107576 C6.57711689,42.7015767 9.60163759,42.7406578 9.60163759,42.7406578 C12.7146571,42.9577746 14.3538306,45.9105638 14.3538306,45.9105638 C17.1186899,50.6130735 21.6058727,49.2534395 23.374877,48.4677178 C23.6530162,46.4794099 24.4565564,45.1226708 25.3430036,44.3545597 C18.4575995,43.5765576 11.2191727,40.9390704 11.2191727,29.1530029 C11.2191727,25.794929 12.4301966,23.0508133 14.4133972,20.8967729 C14.0914948,20.121907 13.0304813,16.9934945 14.7136611,12.7565798 C14.7136611,12.7565798 17.3168398,11.9298471 23.2409131,15.9095989 C25.7135317,15.227852 28.3655793,14.8862548 31.0001216,14.8746753 C33.6346639,14.8862548 36.2886565,15.227852 38.7661377,15.9095989 C44.6831602,11.9298471 47.282692,12.7565798 47.282692,12.7565798 C48.970005,16.9934945 47.9085052,20.121907 47.5866028,20.8967729 C49.5741797,23.0508133 50.7769373,25.7946878 50.7769373,29.1530029 C50.7769373,40.9670544 43.5248952,43.5685967 36.6219859,44.3299531 C37.7338133,45.2845435 38.7245627,47.1565732 38.7245627,50.0261342 C38.7245627,54.1417047 38.6885796,57.4541841 38.6885796,58.4673961 C38.6885796,59.2859266 39.2465599,60.2451006 40.8181437,59.9430669 C53.1287209,55.871161 62,44.3453925 62,30.7594264 C62,13.7712392 48.1205134,0 31.0001216,0" id="Shape"></path>
            <path d="M11.7894785,43.5180109 C11.7247492,43.6696663 11.4940354,43.7151869 11.2843587,43.6112083 C11.0705208,43.5115422 10.9503092,43.3045433 11.019662,43.1521691 C11.0832354,42.9959616 11.3139492,42.9523577 11.5273248,43.0572946 C11.741625,43.1567212 11.863686,43.3656367 11.7894785,43.5180109 M13.2394151,44.858712 C13.09886,44.9938363 12.8239916,44.9310658 12.6374325,44.7175982 C12.4446316,44.5046097 12.4085681,44.2199863 12.5512038,44.0827058 C12.6961512,43.9478211 12.9626973,44.0108311 13.1559605,44.2240592 C13.3487614,44.4394434 13.3862119,44.7223898 13.2391839,44.8589516 M14.2341659,46.5741194 C14.0533862,46.7042124 13.7579431,46.5822652 13.5755452,46.3105792 C13.3949966,46.0391327 13.3949966,45.7133011 13.5794751,45.5827289 C13.7625666,45.4521567 14.0533862,45.5695519 14.2383271,45.8390817 C14.4186445,46.1153198 14.4186445,46.4411514 14.2339347,46.574359 M15.9162033,48.5609733 C15.7546112,48.7454514 15.4106212,48.6960975 15.1586392,48.4440572 C14.901109,48.1977669 14.8292132,47.8482167 14.9912677,47.6634989 C15.1547092,47.4785416 15.5007799,47.5305309 15.7546112,47.780415 C16.0105232,48.0262262 16.0886607,48.3784118 15.9164345,48.5609733 M18.0901835,49.231803 C18.0192125,49.4709059 17.6877059,49.5796761 17.3538876,49.4780933 C17.0205316,49.373396 16.8023014,49.093085 16.8695736,48.8513467 C16.9389265,48.6105667 17.2718201,48.4972444 17.6081813,48.6060147 C17.9410749,48.7102329 18.1597675,48.9883876 18.0904147,49.231803 M20.5646927,49.5161869 C20.573015,49.7682272 20.2898243,49.9771427 19.9393613,49.9816948 C19.5868177,49.989601 19.3017776,49.7857167 19.2980787,49.5379888 C19.2980787,49.2835527 19.5747966,49.0765538 19.927109,49.0705643 C20.277572,49.0633768 20.5646927,49.2658236 20.5646927,49.5161869 M22.9952784,49.4196353 C23.0373524,49.6654465 22.7936928,49.9179659 22.4457728,49.9850489 C22.1036321,50.0497361 21.7869208,49.8980806 21.7432285,49.6544257 C21.7006921,49.4023854 21.9489753,49.1501055 22.2904224,49.0846996 C22.639036,49.0219291 22.9508926,49.1697512 22.9952784,49.4196353" id="Shape"></path>
        </g>
    </g>
</svg>